<?xml version="1.0" encoding="UTF-8"?>
<svg version="1.1" xmlns="http://www.w3.org/2000/svg" width="500" height="500">
<path d="M0 0 C0.78295441 -0.00807175 1.56590881 -0.01614349 2.37258911 -0.02445984 C4.02848102 -0.03828041 5.68440117 -0.04901162 7.34033203 -0.05688477 C9.86676142 -0.07410932 12.39188554 -0.11801255 14.91796875 -0.16210938 C16.52863624 -0.17223602 18.13931481 -0.18075221 19.75 -0.1875 C20.8783577 -0.21376213 20.8783577 -0.21376213 22.0295105 -0.24055481 C25.74099733 -0.22527633 27.8102411 0.11107976 30.96142578 2.13989258 C33.60918549 4.85493609 33.9595965 5.72719164 34.3203125 9.55078125 C33.95905308 13.81364236 32.98789196 15.25820179 30.0078125 18.23828125 C27.14469862 19.66983819 24.62272767 19.42139038 21.42578125 19.484375 C20.08788437 19.51732507 18.7499939 19.55053651 17.41210938 19.58398438 C15.30562933 19.63129622 13.19917311 19.67570908 11.0925293 19.71508789 C9.0575002 19.75499979 7.02300936 19.80650681 4.98828125 19.859375 C3.16139771 19.89695923 3.16139771 19.89695923 1.29760742 19.93530273 C-3.04079953 20.33485472 -5.89395306 21.14004681 -8.9921875 24.23828125 C-9.29882493 26.84912228 -9.29882493 26.84912228 -9.24945641 29.95490074 C-9.2559053 31.17908789 -9.26235419 32.40327504 -9.2689985 33.66455877 C-9.26605578 35.03543664 -9.2629203 36.40631412 -9.25961304 37.77719116 C-9.2633464 39.22387385 -9.26794666 40.67055452 -9.27334368 42.11723197 C-9.28562802 46.10696617 -9.28530686 50.09661687 -9.28295493 54.0863657 C-9.28254813 58.38366565 -9.29357281 62.68093834 -9.30307007 66.97822571 C-9.31971083 75.40284881 -9.325181 83.82744394 -9.32629482 92.25208209 C-9.32724385 99.09744748 -9.33134687 105.94280359 -9.33769608 112.78816605 C-9.35531696 132.17956427 -9.36453364 151.57094031 -9.36303513 170.9623466 C-9.36295522 172.00860035 -9.3628753 173.05485409 -9.36279297 174.1328125 C-9.36271121 175.18033804 -9.36262945 176.22786358 -9.36254521 177.30713232 C-9.36173209 194.28867274 -9.38087406 211.27012452 -9.4090697 228.25163929 C-9.43776664 245.67199943 -9.45161176 263.09231629 -9.44988215 280.51270068 C-9.44921714 290.29941271 -9.45475795 300.08603182 -9.47623825 309.87272263 C-9.49440816 318.20482265 -9.49883203 326.53678764 -9.4852194 334.86889885 C-9.47866843 339.12256256 -9.47864875 343.37596688 -9.4959259 347.62960625 C-9.51156843 351.52071795 -9.50888436 355.41136272 -9.49135764 359.30246241 C-9.48826813 360.71296448 -9.49199298 362.12350064 -9.50307779 363.53396253 C-9.51711316 365.44592166 -9.50426946 367.35802234 -9.48996544 369.26997948 C-9.49040017 370.33363114 -9.49083491 371.3972828 -9.49128282 372.49316633 C-8.85663797 375.98382828 -7.83499312 377.15781511 -4.9921875 379.23828125 C-2.7253256 379.82706083 -2.7253256 379.82706083 -0.24762726 379.73326588 C0.70883713 379.74184677 1.66530152 379.75042766 2.65074968 379.75926858 C4.22252324 379.74281471 4.22252324 379.74281471 5.8260498 379.72602844 C6.94145504 379.73015171 8.05686027 379.73427497 9.20606565 379.73852319 C12.95728559 379.74747927 16.70781233 379.72776288 20.45898438 379.70825195 C23.14272249 379.70876053 25.82641641 379.71084631 28.51014709 379.71488953 C35.05094089 379.72111928 41.59152346 379.7061159 48.13227665 379.68416391 C55.74655594 379.65949027 63.36079639 379.65655983 70.97510976 379.65476014 C84.55946177 379.65088228 98.14371854 379.62840536 111.72802734 379.5949707 C124.91455482 379.56254151 138.10103203 379.54129213 151.28759766 379.53344727 C152.50580359 379.53271903 152.50580359 379.53271903 153.74861974 379.53197608 C157.01289461 379.53004743 160.27716949 379.5281353 163.54144439 379.52625998 C176.10088959 379.51872858 188.66032652 379.50310028 201.21976158 379.48576337 C205.01561427 379.48052633 208.81146679 379.47559331 212.60732079 379.47140145 C220.5902999 379.46248169 228.5732549 379.45070242 236.55621278 379.42983542 C239.85792378 379.42123692 243.15961502 379.41467115 246.46133614 379.41131973 C250.03744539 379.40734843 253.61348441 379.39724007 257.1895752 379.38545227 C258.76134876 379.38572881 258.76134876 379.38572881 260.36487532 379.38601094 C261.32133971 379.3815531 262.2778041 379.37709526 263.26325226 379.37250233 C264.5016853 379.36981947 264.5016853 379.36981947 265.7651372 379.36708242 C267.9685169 379.24053807 269.89193256 378.84891326 272.0078125 378.23828125 C272.92082595 375.12074864 273.13667498 372.3268224 273.14584351 369.08338928 C273.15402351 367.52094734 273.15402351 367.52094734 273.16236877 365.92694092 C273.1634111 364.78968567 273.16445343 363.65243042 273.16552734 362.48071289 C273.17060806 361.2787175 273.17568878 360.07672211 273.18092346 358.83830261 C273.19162738 356.22681782 273.20062804 353.61538602 273.20704269 351.0038929 C273.21774119 346.87294921 273.23799005 342.74208686 273.26016235 338.6111908 C273.32202738 326.86558755 273.37611236 315.11998985 273.40917969 303.37426758 C273.42752918 296.88480872 273.456466 290.39548692 273.4971844 283.90612882 C273.51824296 280.47370599 273.53371006 277.04145575 273.53599167 273.60896492 C273.53853939 269.78091422 273.56400687 265.95320237 273.59130859 262.12524414 C273.58830246 260.99001312 273.58529633 259.8547821 273.5821991 258.68515015 C273.59329208 257.64070236 273.60438507 256.59625458 273.61581421 255.52015686 C273.61912436 254.61554246 273.6224345 253.71092806 273.62584496 252.7789011 C274.18804285 249.03949667 275.76010265 246.25493372 278.6953125 243.86328125 C282.27573466 242.89559959 285.47759053 243.10020148 289.0078125 244.23828125 C292.1573952 247.30710542 293.88089835 250.01903982 294.13644695 254.48760414 C294.1381228 255.37281935 294.13979864 256.25803455 294.14152527 257.17007446 C294.14579025 258.18771881 294.15005524 259.20536316 294.15444946 260.25384521 C294.15399628 261.36971008 294.15354309 262.48557495 294.15307617 263.63525391 C294.15811409 265.39912949 294.15811409 265.39912949 294.16325378 267.19863892 C294.17113471 270.42624539 294.17443199 273.65381329 294.17506957 276.88142824 C294.1757806 278.900512 294.17791603 280.91958903 294.18056679 282.93867111 C294.18982298 289.99053118 294.19390171 297.04237234 294.19311523 304.09423828 C294.19251574 310.6532822 294.20304158 317.21224353 294.2188589 323.77126658 C294.2319722 329.41134005 294.23729748 335.05138668 294.23665982 340.69147527 C294.23640576 344.05584767 294.2392053 347.42014681 294.24983788 350.78450394 C294.25966355 354.54471875 294.25674895 358.30472302 294.25073242 362.06494141 C294.25635193 363.16866089 294.26197144 364.27238037 294.26776123 365.4095459 C294.22579804 375.75969424 293.0460491 384.27159641 286.0078125 392.23828125 C277.54203136 399.44189138 269.52657587 400.53758034 258.76202393 400.50570679 C257.07410362 400.51250346 257.07410362 400.51250346 255.35208392 400.51943743 C251.58526669 400.53208738 247.81859393 400.53046065 244.05175781 400.52880859 C241.34939022 400.53370759 238.64703273 400.54154249 235.94467163 400.54916382 C229.36792852 400.56575256 222.79122126 400.57127241 216.21445897 400.57238857 C210.86622136 400.5733401 205.51799554 400.57745563 200.16976166 400.58378983 C184.99367716 400.6013968 169.81762091 400.6106296 154.64152613 400.60912888 C153.82396313 400.60904897 153.00640014 400.60896905 152.1640625 400.60888672 C151.34549675 400.60880496 150.526931 400.6087232 149.68356022 400.60863896 C136.42207534 400.60782632 123.16070411 400.62695985 109.89925209 400.65516345 C96.26988971 400.68391987 82.6405827 400.69770222 69.01118922 400.6959759 C61.36439764 400.69531293 53.71772519 400.70076439 46.070961 400.722332 C39.55954544 400.74058021 33.04830301 400.74486144 26.53687289 400.73131315 C23.21787822 400.72480144 19.89948517 400.72679126 16.58047867 400.74201965 C12.9738701 400.75749281 9.36812607 400.74814891 5.76153564 400.73275757 C4.72445001 400.74304469 3.68736437 400.75333182 2.6188519 400.76393068 C-6.55564957 400.67773746 -15.64083979 398.5381089 -22.4921875 392.08203125 C-27.75864265 385.60868012 -30.11260547 378.48313208 -30.12640858 370.26109123 C-30.13086642 369.02965539 -30.13532426 367.79821954 -30.13991719 366.52946746 C-30.1398279 365.16074807 -30.13963805 363.79202869 -30.13935852 362.42330933 C-30.14265814 360.9709285 -30.14638392 359.5185486 -30.1505 358.06616986 C-30.16051691 354.06975644 -30.1642363 350.07335805 -30.16688931 346.07693386 C-30.17079327 341.76865437 -30.18037154 337.46038677 -30.18910217 333.15211487 C-30.20886386 322.74504406 -30.21893237 312.33797228 -30.22782996 301.9308874 C-30.2322133 297.02989399 -30.23757999 292.12890165 -30.24281883 287.22790909 C-30.25983073 270.93574943 -30.27432494 254.64359044 -30.28156757 238.35142326 C-30.28347746 234.12360508 -30.2853978 229.89578691 -30.28735352 225.66796875 C-30.28783726 224.61716685 -30.288321 223.56636494 -30.2888194 222.48372056 C-30.29711985 205.46109944 -30.32245722 188.43854859 -30.35493419 171.41595815 C-30.38800617 153.93901003 -30.40601646 136.46209761 -30.40921181 118.98511803 C-30.41137677 109.17252821 -30.42012331 99.36004086 -30.44567299 89.54748154 C-30.46738185 81.19072221 -30.47542947 72.83409026 -30.46570621 64.47730593 C-30.46116207 60.21477882 -30.46305429 55.95251448 -30.48246765 51.69002342 C-30.5001041 47.78388393 -30.49909794 43.87819884 -30.48357036 39.9720545 C-30.481195 38.56284784 -30.48551417 37.15360969 -30.49739901 35.74445115 C-30.58753513 24.34649335 -28.88088645 15.4121088 -20.9296875 6.9296875 C-14.76264822 1.54596168 -7.99335432 0.07807403 0 0 Z " fill="#64152D" transform="translate(64.9921875,74.76171875)"/>
<path d="M0 0 C3.1484375 1.546875 3.1484375 1.546875 6.375 3.75 C6.96007324 4.14469482 7.54514648 4.53938965 8.14794922 4.94604492 C10.11128726 6.27983156 12.05548799 7.63893428 14 9 C15.51542425 10.04326041 17.03105571 11.0862199 18.546875 12.12890625 C20.07408678 13.18841952 21.60014712 14.2495946 23.125 15.3125 C23.8473584 15.81555664 24.5697168 16.31861328 25.31396484 16.83691406 C34.50908484 23.34316135 34.50908484 23.34316135 36 28.375 C36 32.8637752 34.84773815 34.59853498 32 38 C28.40212171 40.39858552 27.25038904 40.55742807 23 40 C20.03552582 38.58709453 17.35101715 36.82391744 14.625 35 C13.52091797 34.28457031 13.52091797 34.28457031 12.39453125 33.5546875 C10.58843511 32.3818978 8.79310206 31.19256194 7 30 C7.54245361 30.40887451 8.08490723 30.81774902 8.64379883 31.23901367 C10.01893104 32.27714313 11.39125215 33.31900031 12.76171875 34.36328125 C14.9234976 35.99218899 14.9234976 35.99218899 17.01953125 37.23046875 C20.39864698 39.31484961 22.40714687 40.9714406 23.6875 44.8125 C24.88718138 52.89696447 17.70478841 60.54352238 13.25 66.75 C11.98470007 68.53446389 10.72037047 70.31961621 9.45703125 72.10546875 C8.85455566 72.95544434 8.25208008 73.80541992 7.63134766 74.68115234 C5.04753762 78.35385928 2.57517515 82.09648998 0.1015625 85.84375 C-4.29476892 92.44641876 -8.80808822 98.97052205 -13.29443359 105.51220703 C-16.03256177 109.50612717 -18.76612872 113.50316535 -21.5 117.5 C-24.72591717 122.21528574 -27.95215657 126.93034992 -31.1796875 131.64453125 C-36.96156966 140.09061401 -42.73553847 148.54201642 -48.5 157 C-54.79179937 166.23172711 -61.09591644 175.45494319 -67.40722656 184.67333984 C-70.10560376 188.61502205 -72.80274619 192.55754903 -75.5 196.5 C-78.72596938 201.21525004 -81.95215656 205.9303499 -85.1796875 210.64453125 C-85.70506104 211.41321533 -86.23043457 212.18189941 -86.77172852 212.97387695 C-87.84317408 214.53674844 -88.91921443 216.09647953 -89.99975586 217.65307617 C-92.93755233 221.90082375 -95.75257849 226.18835508 -98.44921875 230.59375 C-106.46329427 243.43577993 -114.62606805 251.52255029 -127.5 259.4296875 C-131.57865694 261.99159389 -135.4658549 264.81403591 -139.375 267.625 C-141.90976089 269.42665949 -144.45250984 271.21640208 -147 273 C-148.07507813 273.75925781 -149.15015625 274.51851563 -150.2578125 275.30078125 C-153.84826433 277.52563388 -155.84386758 277.66794985 -160 277 C-163.76067448 274.70181004 -165.65502964 273.31402542 -166.7890625 268.99438477 C-167.06434585 263.78152501 -166.12973852 259.2255253 -165 254.15234375 C-164.77338181 253.11133011 -164.54676361 252.07031647 -164.3132782 250.99775696 C-163.56617724 247.63831402 -162.78939081 244.28724921 -162 240.9375 C-161.73256989 239.7992981 -161.46513977 238.66109619 -161.18960571 237.48840332 C-157.26684993 221.13270752 -153.13484675 208.16327111 -141.93212891 195.31201172 C-138.38650968 191.06927555 -135.43205021 186.41247489 -132.375 181.8125 C-131.12495227 179.97352008 -129.87238635 178.13624913 -128.6171875 176.30078125 C-127.70791504 174.96781006 -127.70791504 174.96781006 -126.78027344 173.60791016 C-123.49432208 168.7943429 -120.20153728 163.98545608 -116.90917969 159.17626953 C-110.89667063 150.39171202 -104.90216443 141.59489364 -98.90722656 132.79833984 C-95.77213959 128.19844649 -92.63602319 123.59925511 -89.5 119 C-88.24999495 117.16667011 -86.99999495 115.33333678 -85.75 113.5 C-83.25 109.83333333 -80.75 106.16666667 -78.25 102.5 C-77.3216333 101.13838745 -77.3216333 101.13838745 -76.37451172 99.74926758 C-75.12615953 97.91836187 -73.87778718 96.08746992 -72.62939453 94.2565918 C-68.84254367 88.7027744 -65.05616569 83.14863567 -61.27124023 77.59350586 C-60.01673558 75.7536626 -58.76105691 73.91461925 -57.50415039 72.07641602 C-54.43781402 67.59030729 -51.3899151 63.09377865 -48.37890625 58.5703125 C-47.79898926 57.70559326 -47.21907227 56.84087402 -46.62158203 55.94995117 C-45.5357589 54.33003151 -44.45676519 52.70550295 -43.38623047 51.07543945 C-40.35582888 46.57371258 -37.44129893 43.15565977 -33 40 C-29.38150175 39.40922478 -27.5780869 39.73723323 -24.25 41.25 C-21.83119625 43.1312918 -20.91208095 44.09792427 -20 47 C-19.66383209 51.53204145 -20.13261789 53.94487608 -22.6875 57.6875 C-23.32816406 58.64011719 -23.96882812 59.59273437 -24.62890625 60.57421875 C-25.41915665 61.71622486 -26.20953222 62.85814435 -27 64 C-27.9684942 65.42246528 -28.93586653 66.84569479 -29.90234375 68.26953125 C-32.68412511 72.35853908 -35.48349132 76.43522069 -38.28710938 80.50927734 C-40.98971138 84.43914417 -43.68237763 88.37579173 -46.375 92.3125 C-46.90561035 93.08787109 -47.4362207 93.86324219 -47.98291016 94.66210938 C-52.16193507 100.77020316 -56.33196897 106.8844005 -60.5 113 C-66.79179937 122.23172711 -73.09591644 131.45494319 -79.40722656 140.67333984 C-82.10560377 144.61502205 -84.80273174 148.5575589 -87.5 152.5 C-88.5833275 154.08333732 -89.66666083 155.66667066 -90.75 157.25 C-91.28625 158.03375 -91.8225 158.8175 -92.375 159.625 C-110.25 185.75 -110.25 185.75 -111.87719727 188.12817383 C-112.95325312 189.70089575 -114.02926275 191.27364931 -115.10522461 192.84643555 C-117.92451196 196.96739295 -120.74476004 201.08768854 -123.56640625 205.20703125 C-124.15164063 206.06167969 -124.736875 206.91632813 -125.33984375 207.796875 C-126.4554305 209.42598581 -127.57129784 211.05490453 -128.6875 212.68359375 C-129.68606245 214.14205393 -130.68028508 215.60349819 -131.66943359 217.06835938 C-132.80830826 218.72171284 -134.01330341 220.32918433 -135.23046875 221.92578125 C-137.6276197 226.090368 -138.38815493 230.18430227 -139.25 234.875 C-139.42273438 235.75414062 -139.59546875 236.63328125 -139.7734375 237.5390625 C-140.194406 239.69067925 -140.60287022 241.84387902 -141 244 C-128.30491118 236.54082979 -120.78581805 228.39563903 -113 216 C-111.73454409 214.10057305 -110.46423484 212.20436404 -109.1875 210.3125 C-108.56617188 209.37148438 -107.94484375 208.43046875 -107.3046875 207.4609375 C-98.99869895 194.92922943 -90.40357462 182.58437356 -81.91088867 170.17871094 C-75.89772178 161.39340007 -69.90272373 152.59571433 -63.90722656 143.79833984 C-60.77213959 139.19844649 -57.63602319 134.59925511 -54.5 130 C-53.24999495 128.16667011 -51.99999495 126.33333678 -50.75 124.5 C-28.25 91.5 -28.25 91.5 -26.37158203 88.74536133 C-25.13250976 86.92780749 -23.89389636 85.10994074 -22.65576172 83.29174805 C-19.367431 78.46420792 -16.06929652 73.64372474 -12.7578125 68.83203125 C-12.06623047 67.82462891 -11.37464844 66.81722656 -10.66210938 65.77929688 C-9.33037995 63.83979831 -7.99585863 61.90221303 -6.65820312 59.96679688 C-6.06201172 59.09732422 -5.46582031 58.22785156 -4.8515625 57.33203125 C-4.05999756 56.18311401 -4.05999756 56.18311401 -3.25244141 55.01098633 C-1.84623727 52.92721273 -1.84623727 52.92721273 -1 50 C-1.98395752 49.38910522 -1.98395752 49.38910522 -2.98779297 48.76586914 C-5.96886644 46.89272344 -8.92133203 44.97854112 -11.875 43.0625 C-12.90753906 42.42248047 -13.94007813 41.78246094 -15.00390625 41.12304688 C-23.46683734 35.56406273 -23.46683734 35.56406273 -24.9453125 30.49609375 C-25.48506898 25.46681435 -23.70566168 22.11551224 -21 18 C-20.56413574 17.30938477 -20.12827148 16.61876953 -19.67919922 15.90722656 C-18.30483714 13.78325695 -16.88140913 11.7022026 -15.4375 9.625 C-14.95603516 8.91472656 -14.47457031 8.20445312 -13.97851562 7.47265625 C-13.2756543 6.45365234 -13.2756543 6.45365234 -12.55859375 5.4140625 C-12.13892334 4.8051416 -11.71925293 4.1962207 -11.28686523 3.56884766 C-7.96929811 -0.4756764 -4.92152663 -0.476611 0 0 Z M-1 24 C-1 24.66 -1 25.32 -1 26 C1.475 26.99 1.475 26.99 4 28 C2.68799596 26.64567325 1.35368596 25.31266518 0 24 C-0.33 24 -0.66 24 -1 24 Z " fill="#64142D" transform="translate(394,125)"/>
<path d="M0 0 C6.85565972 4.9796177 11.83809109 11.08265311 13.375 19.4921875 C14.24189453 19.47647705 15.10878906 19.4607666 16.00195312 19.44458008 C19.25225574 19.39311551 22.50234898 19.35567489 25.75292969 19.32739258 C27.15339031 19.31240836 28.55380483 19.29201371 29.95410156 19.26586914 C47.1364397 18.95335158 47.1364397 18.95335158 53.43359375 24.2109375 C53.88863281 24.79875 54.34367188 25.3865625 54.8125 25.9921875 C55.28558594 26.58 55.75867188 27.1678125 56.24609375 27.7734375 C58.4802627 31.1749404 58.51399032 34.20200733 58.55200195 38.15356445 C58.57125481 39.89601189 58.57125481 39.89601189 58.59089661 41.67366028 C58.59828354 42.92990707 58.60567047 44.18615387 58.61328125 45.48046875 C58.621353 46.77156052 58.62942474 48.06265228 58.63774109 49.39286804 C58.65275386 52.1273892 58.66259857 54.86188452 58.67016602 57.59643555 C58.68122291 61.09021203 58.71561972 64.5833503 58.75533772 68.07690144 C58.78785029 71.41973119 58.79228634 74.76249312 58.80078125 78.10546875 C58.81828934 79.35564285 58.83579742 80.60581696 58.85383606 81.89387512 C58.82599953 93.03668063 58.82599953 93.03668063 54.375 97.4921875 C47.97534815 102.26739463 42.19231658 102.06167876 34.390625 102.00976562 C32.44549011 102.02027954 32.44549011 102.02027954 30.46105957 102.03100586 C26.91964114 102.04917164 23.37869116 102.04220006 19.83726501 102.02948952 C16.12229192 102.01932659 12.40735757 102.0287643 8.69238281 102.03503418 C2.45500526 102.04230106 -3.78218254 102.03274825 -10.01953125 102.01367188 C-17.21956465 101.99190481 -24.4191449 101.99895687 -31.61916733 102.0209775 C-37.81303649 102.03915902 -44.00676965 102.04167644 -50.20065689 102.03122282 C-53.89471102 102.02500293 -57.5885525 102.02411048 -61.28259277 102.03736877 C-65.4022076 102.05112304 -69.52104744 102.03203292 -73.640625 102.00976562 C-74.85745972 102.01786255 -76.07429443 102.02595947 -77.32800293 102.03430176 C-84.97756698 101.95774323 -89.70934541 101.24232003 -95.38146973 95.80996704 C-99.42577504 89.61284922 -99.31870484 83.68787874 -99.21875 76.453125 C-99.21879028 75.21350006 -99.21883057 73.97387512 -99.21887207 72.69668579 C-99.21352855 70.08615017 -99.19599641 67.47561433 -99.16699219 64.86523438 C-99.13894797 62.19516384 -99.12125673 59.52827705 -99.12597656 56.85839844 C-99.13263465 52.99385701 -99.11752145 49.13008859 -99.09375 45.265625 C-99.09354858 44.07488373 -99.09334717 42.88414246 -99.09313965 41.65731812 C-98.98497183 34.07824538 -98.43519355 29.2399323 -92.8125 23.7421875 C-87.40435692 19.92467474 -82.80427653 19.24277199 -76.2578125 19.296875 C-75.57822479 19.2997049 -74.89863708 19.30253479 -74.19845581 19.30545044 C-72.04878392 19.31655786 -69.89954386 19.34164359 -67.75 19.3671875 C-66.28386023 19.37722955 -64.81771386 19.38635325 -63.3515625 19.39453125 C-59.77590369 19.41646591 -56.20049406 19.45092936 -52.625 19.4921875 C-52.41133789 18.32308838 -52.41133789 18.32308838 -52.19335938 17.13037109 C-50.64132222 9.92619863 -45.04969223 4.21261429 -39.25 0 C-26.37681876 -7.3944166 -12.87318124 -7.3944166 0 0 Z M-31.3125 19.9296875 C-34.30207227 23.69997609 -34.90753248 28.14469315 -35.75390625 32.78515625 C-36.83970749 36.15941751 -37.52695095 36.79626617 -40.625 38.4921875 C-43.58949943 38.81731312 -46.360704 38.98074662 -49.328125 39.00390625 C-50.0711084 39.02054321 -50.8140918 39.03718018 -51.57958984 39.05432129 C-54.34444115 39.1119811 -57.10977346 39.14433854 -59.875 39.1796875 C-66.0625 39.2828125 -72.25 39.3859375 -78.625 39.4921875 C-78.625 53.6821875 -78.625 67.8721875 -78.625 82.4921875 C-39.685 82.4921875 -0.745 82.4921875 39.375 82.4921875 C39.375 68.3021875 39.375 54.1121875 39.375 39.4921875 C27.42364857 39.36136026 27.42364857 39.36136026 15.47192383 39.28442383 C13.96692423 39.2579649 12.46195507 39.22968483 10.95703125 39.19921875 C10.1837146 39.20320679 9.41039795 39.20719482 8.61364746 39.21130371 C4.40273943 39.10079365 2.81288899 38.83935631 -0.60522461 36.12939453 C-2.87588692 33.16460615 -3.4253648 31.21445432 -4 27.5546875 C-5.13684872 22.24939348 -6.57230432 19.70241521 -10.90625 16.48046875 C-18.3619661 12.19343199 -25.33286748 14.50629986 -31.3125 19.9296875 Z " fill="#65142D" transform="translate(216.625,30.5078125)"/>
<path d="M0 0 C10.74807696 9.2732122 16.95560313 21.08983032 18.52734375 35.2109375 C19.20626613 48.13167905 14.34127852 60.40055399 6.3828125 70.328125 C-1.88282054 79.45252511 -13.82844603 85.31329114 -26.08203125 86.2109375 C-40.67054336 86.70218332 -53.05038075 82.79398135 -63.97265625 72.93359375 C-74.37999051 62.05319884 -78.2691672 49.56109496 -78.03515625 34.84765625 C-76.96444728 21.54409735 -70.88387011 10.09964683 -61.2578125 1.00390625 C-43.77857097 -13.05489818 -17.84768571 -13.68226149 0 0 Z " fill="#EABA7D" transform="translate(471.72265625,45.03515625)"/>
<path d="M0 0 C21.12 0 42.24 0 64 0 C64 21.12 64 42.24 64 64 C42.88 64 21.76 64 0 64 C0 42.88 0 21.76 0 0 Z M20 20 C20 28.25 20 36.5 20 45 C28.25 45 36.5 45 45 45 C45 36.75 45 28.5 45 20 C36.75 20 28.5 20 20 20 Z " fill="#64142D" transform="translate(95,259)"/>
<path d="M0 0 C21.12 0 42.24 0 64 0 C64 21.12 64 42.24 64 64 C42.88 64 21.76 64 0 64 C0 42.88 0 21.76 0 0 Z M20 20 C20 28.25 20 36.5 20 45 C28.25 45 36.5 45 45 45 C45 36.75 45 28.5 45 20 C36.75 20 28.5 20 20 20 Z " fill="#66142D" transform="translate(95,166)"/>
<path d="M0 0 C21.12 0 42.24 0 64 0 C64 20.79 64 41.58 64 63 C42.88 63 21.76 63 0 63 C0 42.21 0 21.42 0 0 Z M20 19 C20 27.25 20 35.5 20 44 C28.25 44 36.5 44 45 44 C45 35.75 45 27.5 45 19 C36.75 19 28.5 19 20 19 Z " fill="#65142D" transform="translate(95,353)"/>
<path d="M0 0 C0.84672775 -0.00708481 1.69345551 -0.01416962 2.56584167 -0.02146912 C3.49162521 -0.0189917 4.41740875 -0.01651428 5.37124634 -0.01396179 C6.34876358 -0.01907272 7.32628082 -0.02418365 8.3334198 -0.02944946 C11.57216476 -0.04337532 14.81069761 -0.04238629 18.04946899 -0.04008484 C20.29764892 -0.04397041 22.54582811 -0.04830479 24.79400635 -0.05307007 C29.51004412 -0.06053894 34.22600705 -0.06023637 38.94204712 -0.05497742 C44.98715613 -0.04918504 51.03195852 -0.06610516 57.07701683 -0.08932209 C61.72155552 -0.10405148 66.36602025 -0.10493215 71.01057816 -0.10181236 C73.23932121 -0.10232608 75.46806834 -0.10757315 77.69678879 -0.11762428 C80.81373778 -0.12995433 83.93008824 -0.12321707 87.04702759 -0.11161804 C87.96876266 -0.11926178 88.89049774 -0.12690552 89.84016418 -0.13478088 C94.64766061 -0.09521897 97.96105666 0.08371834 101.83853149 3.26069641 C103.71897784 6.33779043 103.83967352 8.19560117 103.77603149 11.82319641 C102.60203646 16.12784486 101.65315536 16.99285043 97.83853149 19.26069641 C94.55333793 19.84228721 91.31634162 19.80732552 87.98696899 19.77827454 C86.99940613 19.78528381 86.01184326 19.79229309 84.99435425 19.79951477 C81.73379297 19.81710283 78.47410142 19.80546868 75.21353149 19.79194641 C72.94578892 19.79464108 70.67804746 19.79852329 68.41030884 19.80354309 C63.65905754 19.80943926 58.90810717 19.80087104 54.15689087 19.78218079 C48.06687466 19.75939155 41.97756358 19.77251394 35.88757324 19.79647064 C31.20525805 19.81092518 26.52311002 19.80632412 21.84078979 19.79595947 C19.59530555 19.79329125 17.34980612 19.79656526 15.1043396 19.80587769 C11.96584884 19.81603722 8.82849973 19.80054953 5.69009399 19.77827454 C4.76215027 19.78637146 3.83420654 19.79446838 2.87814331 19.80281067 C-1.33618458 19.74740195 -3.5774087 19.62458232 -7.22640991 17.35115051 C-9.7962746 14.57491201 -10.05694383 12.88235622 -10.30209351 9.22554016 C-10.08972288 6.25825061 -9.02955793 4.52909071 -7.16146851 2.26069641 C-4.08819501 0.21184741 -3.46481177 0.00967006 0 0 Z " fill="#65142D" transform="translate(195.16146850585938,169.7393035888672)"/>
<path d="M0 0 C0.76922287 -0.00241196 1.53844574 -0.00482391 2.33097839 -0.00730896 C3.95223156 -0.0063335 5.57351928 0.00698845 7.19458008 0.03198242 C9.65108012 0.0661712 12.10395126 0.05265887 14.56054688 0.03320312 C25.52519877 0.04310954 33.997729 1.21819871 42.35546875 8.9375 C50.26687401 17.85843354 50.19855714 30.06599727 50.16796875 41.31640625 C50.18408203 42.51330078 50.20019531 43.71019531 50.21679688 44.94335938 C50.22294949 55.99960603 50.22294949 55.99960603 46.85546875 60.62890625 C43.85864743 62.62678713 42.91461729 62.98825853 39.48046875 63.12890625 C38.73023438 63.18046875 37.98 63.23203125 37.20703125 63.28515625 C33.60970336 62.28125079 31.73005494 59.71733573 29.85546875 56.62890625 C29.25952148 53.16552734 29.25952148 53.16552734 29.2890625 49.40234375 C29.28342789 48.73224274 29.27779327 48.06214172 29.27198792 47.37173462 C29.25563647 45.24839761 29.27100231 43.12716828 29.29296875 41.00390625 C29.30959588 38.87370644 29.31863288 36.7448761 29.30323792 34.61465454 C29.28974715 32.68763878 29.30511368 30.76048491 29.32202148 28.83349609 C28.76902389 25.03514631 27.88217767 23.9089426 24.85546875 21.62890625 C21.44718064 20.49281021 18.80351621 20.50271797 15.2109375 20.48828125 C13.23577148 20.45927734 13.23577148 20.45927734 11.22070312 20.4296875 C9.13374814 20.40077348 7.0478614 20.3789074 4.96069336 20.37841797 C-8.15107277 20.35666602 -8.15107277 20.35666602 -12.046875 17.36328125 C-14.13141028 14.64600994 -14.96578823 13.5017368 -14.89453125 10.12890625 C-14.91 9.39671875 -14.92546875 8.66453125 -14.94140625 7.91015625 C-12.54726648 1.05634435 -6.48337444 -0.11803277 0 0 Z " fill="#64142D" transform="translate(309.14453125,74.37109375)"/>
<path d="M0 0 C1.08566757 -0.00744736 1.08566757 -0.00744736 2.19326782 -0.01504517 C4.59329167 -0.02967762 6.99324938 -0.03647106 9.39331055 -0.04199219 C11.05999249 -0.04774338 12.72667442 -0.05350112 14.39335632 -0.05926514 C17.8913097 -0.06977864 21.38924007 -0.07561881 24.88720703 -0.07910156 C29.36631788 -0.08458271 33.84512419 -0.10860099 38.3241396 -0.13707352 C41.76855858 -0.15571239 45.21290446 -0.16090619 48.65736961 -0.16243744 C50.30836843 -0.1654624 51.959366 -0.1734857 53.61031532 -0.18662262 C55.92273617 -0.20370727 58.23441637 -0.20179713 60.546875 -0.1953125 C61.86210648 -0.19895813 63.17733795 -0.20260376 64.53242493 -0.20635986 C68.18647613 0.18455608 70.05417942 0.97292523 72.9675293 3.16113281 C75.29601976 6.37666727 75.51209937 9.27134658 74.9675293 13.16113281 C72.89980345 16.58878605 70.84624694 18.86822693 66.9675293 20.16113281 C64.62326793 20.27136884 62.27598266 20.32022388 59.92919922 20.33813477 C59.21663467 20.34470596 58.50407013 20.35127716 57.76991272 20.35804749 C55.41260672 20.37775216 53.05536434 20.38943656 50.69799805 20.39941406 C49.89182856 20.40348959 49.08565907 20.40756512 48.2550602 20.41176414 C43.98823936 20.43261257 39.72145057 20.44691972 35.45458984 20.45629883 C31.0528607 20.46736227 26.65163722 20.50176456 22.25008678 20.54147053 C18.86053034 20.56764311 15.4710943 20.5759912 12.08144569 20.57958031 C10.45916643 20.58444443 8.83689248 20.59605356 7.21471214 20.6146183 C4.94075043 20.63902519 2.66809617 20.63804268 0.39404297 20.63110352 C-0.8981868 20.63696976 -2.19041656 20.642836 -3.52180481 20.64888 C-7.64777876 20.07564625 -9.81403278 18.75688139 -13.0324707 16.16113281 C-14.64094252 12.94418917 -14.64556219 9.63976059 -14.0324707 6.16113281 C-9.5649251 0.63548431 -6.89397191 0.03585501 0 0 Z " fill="#66142D" transform="translate(200.032470703125,205.8388671875)"/>
<path d="M0 0 C0.88464432 -0.00960754 1.76928864 -0.01921509 2.68074036 -0.02911377 C3.63905258 -0.03336365 4.59736481 -0.03761353 5.5847168 -0.04199219 C7.06091743 -0.0505423 7.06091743 -0.0505423 8.56694031 -0.05926514 C10.65252607 -0.06872269 12.73812682 -0.07525211 14.82373047 -0.07910156 C18.01060181 -0.0887962 21.19682534 -0.11980819 24.38354492 -0.15136719 C26.40893171 -0.15789827 28.43432312 -0.16314833 30.4597168 -0.16699219 C31.41195633 -0.17933899 32.36419586 -0.19168579 33.34529114 -0.20440674 C38.26303632 -0.18790006 41.7876539 -0.14469624 45.72143555 3.16113281 C48.1674926 6.83021839 48.56089957 9.8973205 47.72143555 14.16113281 C45.54569139 16.8521848 43.81077698 18.61646209 40.72143555 20.16113281 C39.3035222 20.27047253 37.88074894 20.32011587 36.45874023 20.33813477 C35.57732361 20.35097 34.69590698 20.36380524 33.78778076 20.37702942 C32.83260559 20.38441635 31.87743042 20.39180328 30.89331055 20.39941406 C29.42066742 20.41152168 29.42066742 20.41152168 27.91827393 20.4238739 C25.83689137 20.43772074 23.75548605 20.4484402 21.67407227 20.45629883 C18.49801256 20.47348897 15.32299981 20.51736737 12.1472168 20.56152344 C10.12508904 20.57165231 8.10295242 20.5801678 6.08081055 20.58691406 C4.66019318 20.61317619 4.66019318 20.61317619 3.21087646 20.63996887 C-2.59369782 20.62097425 -5.84834775 20.01047698 -10.27856445 16.16113281 C-11.88703627 12.94418917 -11.89165594 9.63976059 -11.27856445 6.16113281 C-7.80032365 1.85909813 -5.44247035 0.0476488 0 0 Z " fill="#64152E" transform="translate(197.278564453125,280.8388671875)"/>
<path d="M0 0 C21.12 0 42.24 0 64 0 C64 19.14 64 38.28 64 58 C63.67 58 63.34 58 63 58 C62.98969254 57.36995056 62.97938507 56.73990112 62.96876526 56.09075928 C62.86064059 49.53712715 62.74604726 42.98363085 62.62768555 36.43017578 C62.58435588 33.98391561 62.54267939 31.53762558 62.50268555 29.09130859 C62.44493562 25.57640582 62.38125438 22.06165309 62.31640625 18.546875 C62.29969376 17.4519574 62.28298126 16.35703979 62.26576233 15.22894287 C62.2358445 13.69780853 62.2358445 13.69780853 62.20532227 12.13574219 C62.18200584 10.79005157 62.18200584 10.79005157 62.15821838 9.41717529 C62.07760737 7.01300152 62.07760737 7.01300152 61.42466736 4.80401611 C61 3 61 3 62 1 C41.87 1 21.74 1 1 1 C1.33 21.79 1.66 42.58 2 64 C1.34 64 0.68 64 0 64 C0 42.88 0 21.76 0 0 Z " fill="#561D2F" transform="translate(95,166)"/>
<path d="M0 0 C0.66 0.33 1.32 0.66 2 1 C1.26607277 2.11608391 1.26607277 2.11608391 0.51731873 3.25471497 C-1.92751038 8.19429722 -1.35887805 13.54042701 -1.27709961 18.92456055 C-1.27111252 20.12030701 -1.26512543 21.31605347 -1.25895691 22.54803467 C-1.24037121 25.81449828 -1.20870405 29.08054263 -1.17245555 32.3468473 C-1.13871863 35.76866841 -1.12530209 39.19055573 -1.11073303 42.61250305 C-1.06374057 52.78371237 -0.98621052 62.954662 -0.90020752 73.12561035 C-0.83355107 81.04061663 -0.77577002 88.95546254 -0.74565703 96.87070304 C-0.73185108 100.27639438 -0.70976156 103.68162166 -0.66877556 107.08710289 C-0.62581784 110.87940532 -0.60699644 114.67111836 -0.59350586 118.46362305 C-0.57441162 119.59355179 -0.55531738 120.72348053 -0.53564453 121.88764954 C-0.53680771 122.91804352 -0.53797089 123.9484375 -0.53916931 125.01005554 C-0.53158568 125.90654155 -0.52400206 126.80302755 -0.51618862 127.7266798 C-1 130 -1 130 -3.02880192 131.81187153 C-4.00454497 132.39999512 -4.00454497 132.39999512 -5 133 C-4.83784689 132.44631965 -4.67569378 131.89263929 -4.50862694 131.32218075 C-3.94787309 128.76201001 -3.86937784 126.46604004 -3.86196899 123.84510803 C-3.85651566 122.80348007 -3.85106232 121.76185211 -3.84544373 120.68865967 C-3.8444014 119.55140442 -3.84335907 118.41414917 -3.84228516 117.24243164 C-3.83720444 116.04043625 -3.83212372 114.83844086 -3.82688904 113.60002136 C-3.81618512 110.98853657 -3.80718446 108.37710477 -3.80076981 105.76561165 C-3.79007131 101.63466796 -3.76982245 97.50380561 -3.74765015 93.37290955 C-3.68578512 81.6273063 -3.63170014 69.8817086 -3.59863281 58.13598633 C-3.58028332 51.64652747 -3.5513465 45.15720567 -3.5106281 38.66784757 C-3.48956954 35.23542474 -3.47410244 31.8031745 -3.47182083 28.37068367 C-3.46927311 24.54263297 -3.44380563 20.71492112 -3.41650391 16.88696289 C-3.42101311 15.18411636 -3.42101311 15.18411636 -3.4256134 13.4468689 C-3.41452042 12.40242111 -3.40342743 11.35797333 -3.39199829 10.28187561 C-3.38868814 9.37726121 -3.385378 8.47264681 -3.38196754 7.54061985 C-2.92124457 4.47616593 -1.72878032 2.54235877 0 0 Z " fill="#551F2F" transform="translate(342,320)"/>
<path d="M0 0 C2.12331115 2.30025374 2.9583607 3.76057405 3.5 6.875 C2.7969142 11.26928625 1.13662817 12.86337183 -2 16 C-5.55722863 17.18574288 -8.37776544 17.11990193 -12.13354492 17.11352539 C-12.85574722 17.11367142 -13.57794952 17.11381744 -14.32203674 17.1139679 C-16.70821134 17.11327145 -19.09430779 17.1054916 -21.48046875 17.09765625 C-23.1352789 17.09579112 -24.79008961 17.09436766 -26.44490051 17.09336853 C-30.79981003 17.08955085 -35.15468618 17.07972695 -39.50958252 17.06866455 C-43.95364938 17.05843433 -48.39772163 17.05386745 -52.84179688 17.04882812 C-61.56121323 17.03810402 -70.28060246 17.02103657 -79 17 C-79 16.67 -79 16.34 -79 16 C-78.09211227 15.98969254 -77.18422455 15.97938507 -76.24882507 15.96876526 C-67.69961498 15.87085351 -59.15047503 15.76834803 -50.60138226 15.66066074 C-46.20604141 15.60545817 -41.81069388 15.55204239 -37.4152832 15.50268555 C-33.174769 15.45500272 -28.93433577 15.40265843 -24.69391823 15.34705925 C-23.0747968 15.32665347 -21.45565318 15.30793744 -19.83649254 15.29092598 C-17.571496 15.26684264 -15.30665229 15.2367935 -13.04174805 15.20532227 C-11.10648506 15.18200584 -11.10648506 15.18200584 -9.13212585 15.15821838 C-5.96948891 15.13869833 -5.96948891 15.13869833 -3 14 C-2.29788106 12.34795544 -1.63028587 10.68076231 -1 9 C-0.34 8.67 0.32 8.34 1 8 C0.505 4.04 0.505 4.04 0 0 Z " fill="#551627" transform="translate(272,209)"/>
<path d="M0 0 C0.66 0.33 1.32 0.66 2 1 C0.7934375 2.0828125 0.7934375 2.0828125 -0.4375 3.1875 C-3.02292072 6.02515689 -3.68042813 7.27166147 -4 11 C-3.01 11 -2.02 11 -1 11 C-0.67 12.32 -0.34 13.64 0 15 C0.99 14.67 1.98 14.34 3 14 C5.1875 14.9375 5.1875 14.9375 7 16 C7 16.66 7 17.32 7 18 C19.87 18 32.74 18 46 18 C46 18.33 46 18.66 46 19 C39.8436347 19.09908722 33.6877365 19.17157253 27.53076172 19.21972656 C25.43758047 19.23980659 23.34445508 19.2670764 21.25146484 19.30175781 C18.23781531 19.35043434 15.22490927 19.37300512 12.2109375 19.390625 C11.27945892 19.41127014 10.34798035 19.43191528 9.38827515 19.45318604 C3.61228693 19.45516803 0.41186785 18.82273021 -4 15 C-5.60646029 11.78707942 -5.62441428 8.4741348 -5 5 C-2.5 2 -2.5 2 0 0 Z " fill="#561A2C" transform="translate(191,282)"/>
<path d="M0 0 C3.875 0.875 3.875 0.875 5 2 C7.73678648 2.16009163 10.45187918 2.25954421 13.19140625 2.31640625 C13.91775269 2.33505737 14.64409912 2.3537085 15.39245605 2.3729248 C18.11567581 2.4414201 20.83910333 2.50144241 23.5625 2.5625 C29.646875 2.706875 35.73125 2.85125 42 3 C42 17.52 42 32.04 42 47 C41.67 47 41.34 47 41 47 C41 32.81 41 18.62 41 4 C29.0030551 4.15812546 29.0030551 4.15812546 17.00683594 4.36035156 C15.49936048 4.37203742 13.99187238 4.38222949 12.484375 4.390625 C11.70594238 4.41108887 10.92750977 4.43155273 10.12548828 4.45263672 C6.39323338 4.45503997 4.43418153 4.34737874 1.46972656 1.97558594 C0.9847168 1.32364258 0.49970703 0.67169922 0 0 Z " fill="#521729" transform="translate(215,66)"/>
<path d="M0 0 C0 3.20395416 -0.74335022 5.09399739 -2 8 C-2.66 8 -3.32 8 -4 8 C-5.99768624 11.78416336 -7.33289078 15.71339907 -8.70703125 19.7578125 C-10.36155174 22.62698096 -11.88778854 23.08434109 -15 24 C-14.67 24.99 -14.34 25.98 -14 27 C-14.99 27.66 -15.98 28.32 -17 29 C-15.61711674 22.01789011 -11.93110417 16.92229579 -7.9375 11.125 C-7.28716797 10.16335938 -6.63683594 9.20171875 -5.96679688 8.2109375 C-1.22697459 1.22697459 -1.22697459 1.22697459 0 0 Z " fill="#58162A" transform="translate(255,317)"/>
<path d="M0 0 C4.22880411 -0.14541967 8.45696413 -0.23411527 12.6875 -0.3125 C14.48477539 -0.3753418 14.48477539 -0.3753418 16.31835938 -0.43945312 C25.03767802 -0.5608921 25.03767802 -0.5608921 27.94775391 1.13525391 C29.33203125 2.51953125 29.33203125 2.51953125 31 5 C27.82893561 5.08808512 25.00916509 5.07470182 22 4 C21.67 3.34 21.34 2.68 21 2 C14.07 1.67 7.14 1.34 0 1 C0 0.67 0 0.34 0 0 Z " fill="#571A2C" transform="translate(67,75)"/>
<path d="M0 0 C0.33 0.99 0.66 1.98 1 3 C-0.328125 5.3046875 -0.328125 5.3046875 -2.25 7.875 C-6.92346551 13.42326236 -6.92346551 13.42326236 -9 20 C-10.95927063 21.7143618 -12.95880212 23.38405168 -15 25 C-15 21.21437583 -13.86220701 19.98468178 -11.71875 16.89453125 C-11.04199219 15.91162109 -10.36523438 14.92871094 -9.66796875 13.91601562 C-8.95253906 12.89185547 -8.23710937 11.86769531 -7.5 10.8125 C-6.78457031 9.77673828 -6.06914062 8.74097656 -5.33203125 7.67382812 C-3.56085057 5.11152007 -1.78331468 2.55387103 0 0 Z " fill="#541729" transform="translate(317,288)"/>
<path d="M0 0 C0 3 0 3 -1.4375 4.875 C-3.2010399 7.27341427 -3.59478146 9.08242648 -4 12 C-3.01 12 -2.02 12 -1 12 C-0.01 13.98 0.98 15.96 2 18 C-1.65316671 16.75023244 -2.78065836 16.32901247 -5 13 C-5.57772436 7.88301282 -5.57772436 7.88301282 -5 5 C-2.5 2 -2.5 2 0 0 Z " fill="#58172A" transform="translate(191,207)"/>
<path d="M0 0 C1 3 1 3 0.07421875 5.04296875 C-0.61220703 6.10451172 -0.61220703 6.10451172 -1.3125 7.1875 C-1.76238281 7.90292969 -2.21226562 8.61835938 -2.67578125 9.35546875 C-3.33126953 10.16951172 -3.33126953 10.16951172 -4 11 C-4.66 11 -5.32 11 -6 11 C-6.2475 11.5775 -6.495 12.155 -6.75 12.75 C-8.16683317 15.3002997 -9.87627537 17.01785701 -12 19 C-10.42686828 14.27156386 -7.79358765 10.6566157 -4.875 6.6875 C-4.17310547 5.71973633 -4.17310547 5.71973633 -3.45703125 4.73242188 C-2.3094071 3.15151106 -1.15534523 1.57527699 0 0 Z " fill="#58162A" transform="translate(347,182)"/>
<path d="M0 0 C1.0625 1.8125 1.0625 1.8125 2 4 C1.67 4.99 1.34 5.98 1 7 C0.01 7.33 -0.98 7.66 -2 8 C-2 8.99 -2 9.98 -2 11 C-2.25 13.0625 -2.25 13.0625 -3 15 C-5.046875 16.12109375 -5.046875 16.12109375 -7 17 C-5.34608232 10.77274933 -3.44240996 5.46037442 0 0 Z " fill="#DFBA87" transform="translate(402,56)"/>
<path d="M0 0 C0.66 0.66 1.32 1.32 2 2 C1.54625 2.37125 1.0925 2.7425 0.625 3.125 C-1.20762927 4.98288674 -1.20762927 4.98288674 -1.875 7.875 C-3.61684802 12.71346671 -6.80135479 15.20090319 -11 18 C-9.48103632 13.56829827 -7.07360191 9.96975924 -4.375 6.1875 C-3.95476562 5.59001953 -3.53453125 4.99253906 -3.1015625 4.37695312 C-2.07220272 2.91479435 -1.0367177 1.45695101 0 0 Z " fill="#56172A" transform="translate(345,247)"/>
<path d="M0 0 C0 3.6408385 -1.10652063 4.94130256 -3 8 C-3.28875 8.86625 -3.5775 9.7325 -3.875 10.625 C-5.31805876 13.67145739 -7.03778998 14.51889499 -10 16 C-8.55797524 11.84848662 -6.4989562 8.70021555 -3.875 5.1875 C-3.15054687 4.21167969 -2.42609375 3.23585937 -1.6796875 2.23046875 C-0.84824219 1.12638672 -0.84824219 1.12638672 0 0 Z " fill="#56182A" transform="translate(378,199)"/>
<path d="M0 0 C1.65 0 3.3 0 5 0 C5.66 1.32 6.32 2.64 7 4 C6.01 4.495 6.01 4.495 5 5 C6.65 5.99 8.3 6.98 10 8 C9.34 8.66 8.68 9.32 8 10 C1.42857143 5 1.42857143 5 0 0 Z " fill="#59192D" transform="translate(39,460)"/>
<path d="M0 0 C0 0.66 0 1.32 0 2 C-0.99 2.33 -1.98 2.66 -3 3 C-3 3.99 -3 4.98 -3 6 C-4.0725 6.12375 -5.145 6.2475 -6.25 6.375 C-9.37863615 6.89643936 -11.33480424 7.40088254 -14 9 C-10.44113418 5.11760093 -5.62095916 0 0 0 Z " fill="#E5BE91" transform="translate(424,39)"/>
<path d="M0 0 C0.66 0 1.32 0 2 0 C2 7.92 2 15.84 2 24 C1.34 23.67 0.68 23.34 0 23 C0 15.33333333 0 7.66666667 0 0 Z " fill="#541D2E" transform="translate(113,186)"/>
<path d="M0 0 C0.33 1.32 0.66 2.64 1 4 C-0.36328125 6.25390625 -0.36328125 6.25390625 -2.3125 8.5625 C-4.34688934 11.00954438 -6.23138468 13.34707702 -8 16 C-8.66 15.67 -9.32 15.34 -10 15 C-5.05 7.575 -5.05 7.575 0 0 Z " fill="#551328" transform="translate(326,212)"/>
<path d="M0 0 C0.66 0.33 1.32 0.66 2 1 C0.625 3 0.625 3 -1 5 C-1.66 5 -2.32 5 -3 5 C-3.33 6.32 -3.66 7.64 -4 9 C-4.66 9 -5.32 9 -6 9 C-6.66 10.32 -7.32 11.64 -8 13 C-8 9.4384838 -7.26790571 8.68021425 -5.125 5.9375 C-4.59132813 5.24527344 -4.05765625 4.55304688 -3.5078125 3.83984375 C-2 2 -2 2 0 0 Z " fill="#58182B" transform="translate(359,166)"/>
<path d="M0 0 C0.66 0.33 1.32 0.66 2 1 C-0.64 4.63 -3.28 8.26 -6 12 C-6.66 11.67 -7.32 11.34 -8 11 C-7.34 9.35 -6.68 7.7 -6 6 C-5.01 6 -4.02 6 -3 6 C-2.690625 5.195625 -2.38125 4.39125 -2.0625 3.5625 C-1 1 -1 1 0 0 Z " fill="#57162A" transform="translate(290,298)"/>
<path d="M0 0 C3.93208182 3.25413668 5.9145134 7.05951428 7 12 C6.67 12.99 6.34 13.98 6 15 C4.55722368 12.15344131 3.18824896 9.28360325 1.875 6.375 C1.52179688 5.59898438 1.16859375 4.82296875 0.8046875 4.0234375 C0 2 0 2 0 0 Z " fill="#511426" transform="translate(351,84)"/>
<path d="M0 0 C0.99 0.33 1.98 0.66 3 1 C3.16852247 2.60397277 3.33474886 4.2081869 3.5 5.8125 C3.5928125 6.70582031 3.685625 7.59914063 3.78125 8.51953125 C4 11 4 11 4 14 C1.37548383 11.37548383 1.4167132 9.5122172 0.875 5.875 C0.70742187 4.77929688 0.53984375 3.68359375 0.3671875 2.5546875 C0.24601563 1.71164063 0.12484375 0.86859375 0 0 Z " fill="#56152A" transform="translate(211,52)"/>
<path d="M0 0 C0.99 0.33 1.98 0.66 3 1 C2.79375 2.051875 2.5875 3.10375 2.375 4.1875 C2.00036896 7.99624887 2.28369933 9.66835752 4 13 C3.01 12.67 2.02 12.34 1 12 C0.234375 10.0390625 0.234375 10.0390625 -0.25 7.625 C-0.42015625 6.83351562 -0.5903125 6.04203125 -0.765625 5.2265625 C-1 3 -1 3 0 0 Z " fill="#541528" transform="translate(370,148)"/>
<path d="M0 0 C-0.309375 0.61875 -0.61875 1.2375 -0.9375 1.875 C-2.4039278 6.18802294 -2.66619026 10.4759996 -3 15 C-3.33 15 -3.66 15 -4 15 C-4 10.38 -4 5.76 -4 1 C-2 0 -2 0 0 0 Z " fill="#DEB581" transform="translate(398,75)"/>
<path d="M0 0 C0 4.38100054 -1.77085137 7.6342793 -4.6875 10.875 C-5.3371875 11.431875 -5.3371875 11.431875 -6 12 C-6.66 11.67 -7.32 11.34 -8 11 C-5.36 7.37 -2.72 3.74 0 0 Z " fill="#56172A" transform="translate(290,328)"/>
<path d="M0 0 C0.66 0.33 1.32 0.66 2 1 C0.02 3.97 -1.96 6.94 -4 10 C-4.66 9.67 -5.32 9.34 -6 9 C-5.52797514 4.75177626 -3.03344482 2.80010291 0 0 Z " fill="#57162B" transform="translate(353,267)"/>
<path d="M0 0 C0 0.66 0 1.32 0 2 C-1.32 2 -2.64 2 -4 2 C-4.268125 2.598125 -4.53625 3.19625 -4.8125 3.8125 C-5.98493467 5.97224808 -7.19369282 7.35790256 -9 9 C-8.70460812 5.45529741 -8.22373481 4.21784705 -5.625 1.6875 C-3 0 -3 0 0 0 Z " fill="#54192D" transform="translate(304,75)"/>
<path d="M0 0 C5.03985731 0.44469329 7.37634988 2.71343362 11 6 C9 6 7 6 5 6 C4.67 5.01 4.34 4.02 4 3 C2.00334686 1.31461399 2.00334686 1.31461399 0 0 Z " fill="#58162A" transform="translate(261,51)"/>
<path d="M0 0 C2.76276177 0.52268466 5.3260876 1.10869587 8 2 C8 2.66 8 3.32 8 4 C8.99 4 9.98 4 11 4 C10.67 4.66 10.34 5.32 10 6 C6.7 4.35 3.4 2.7 0 1 C0 0.67 0 0.34 0 0 Z " fill="#E0BE98" transform="translate(416,123)"/>
<path d="M0 0 C-3.1254959 2.64465038 -6.08788267 3.84414715 -10 5 C-7.62417533 -0.26075462 -5.61350876 -0.1220328 0 0 Z " fill="#E0BA8C" transform="translate(468,123)"/>
<path d="M0 0 C3.81684226 1.55500981 6.19195732 4.03595495 9 7 C8.67 7.66 8.34 8.32 8 9 C6.66079162 7.88200014 5.32877444 6.75538103 4 5.625 C2.88625 4.68527344 2.88625 4.68527344 1.75 3.7265625 C1.1725 3.15679687 0.595 2.58703125 0 2 C0 1.34 0 0.68 0 0 Z " fill="#E2BD97" transform="translate(470,45)"/>
<path d="M0 0 C0.33 0.99 0.66 1.98 1 3 C-0.9375 6.1875 -0.9375 6.1875 -3 9 C-3.66 8.67 -4.32 8.34 -5 8 C-4.01 6.02 -3.02 4.04 -2 2 C-1.34 2 -0.68 2 0 2 C0 1.34 0 0.68 0 0 Z " fill="#571528" transform="translate(274,119)"/>
<path d="M0 0 C2.0343459 1.41519715 2.90410393 2.54982123 3.421875 4.98046875 C3.66273952 6.98176954 3.83532741 8.9909944 4 11 C0.85041169 7.57653445 0.43820891 4.55737263 0 0 Z " fill="#DAB98A" transform="translate(396,95)"/>
<path d="M0 0 C-2.35968744 2.09749995 -3.54616994 2.96905704 -6.75 3.1875 C-7.86375 3.0946875 -7.86375 3.0946875 -9 3 C-5.83583464 -0.30799106 -4.50236011 -1.35070803 0 0 Z " fill="#5A162A" transform="translate(133,52)"/>
<path d="M0 0 C0 3.90838866 -1.50567876 5.11594107 -4 8 C-4 7.01 -4 6.02 -4 5 C-4.66 5 -5.32 5 -6 5 C-5.67 4.34 -5.34 3.68 -5 3 C-4.34 3 -3.68 3 -3 3 C-1.37485532 1.54166642 -1.37485532 1.54166642 0 0 Z " fill="#571428" transform="translate(271,326)"/>
<path d="M0 0 C0.66 0.33 1.32 0.66 2 1 C-0.475 4.465 -0.475 4.465 -3 8 C-3.99 7.67 -4.98 7.34 -6 7 C-5.34 7 -4.68 7 -4 7 C-4 5.68 -4 4.36 -4 3 C-2 1.25 -2 1.25 0 0 Z " fill="#551429" transform="translate(365,250)"/>
<path d="M0 0 C2.27183419 2.46115371 2.9736202 3.73620199 3.3125 7.125 C3 10 3 10 1 12 C1.33 9.69 1.66 7.38 2 5 C1.01 4.67 0.02 4.34 -1 4 C-0.67 2.68 -0.34 1.36 0 0 Z " fill="#561729" transform="translate(371,168)"/>
<path d="M0 0 C1.32 0 2.64 0 4 0 C4.66 2.31 5.32 4.62 6 7 C5.34 7 4.68 7 4 7 C2.02 3.535 2.02 3.535 0 0 Z " fill="#DCB888" transform="translate(400,107)"/>
<path d="M0 0 C1.98 0 3.96 0 6 0 C4.68 2.31 3.36 4.62 2 7 C1 4 1 4 2 1 C1.34 0.67 0.68 0.34 0 0 Z " fill="#56162A" transform="translate(393,203)"/>
<path d="M0 0 C-2.62647188 1.75098126 -5.28775382 3.38731308 -8 5 C-7.625 2.5625 -7.625 2.5625 -7 0 C-4.3333581 -1.33332095 -2.83319697 -0.67102033 0 0 Z " fill="#55172A" transform="translate(194,45)"/>
</svg>
