<?xml version="1.0" standalone="no"?>
<!DOCTYPE svg PUBLIC "-//W3C//DTD SVG 20010904//EN"
 "http://www.w3.org/TR/2001/REC-SVG-20010904/DTD/svg10.dtd">
<svg version="1.0" xmlns="http://www.w3.org/2000/svg"
 width="500.000000pt" height="500.000000pt" viewBox="0 0 500.000000 500.000000"
 preserveAspectRatio="xMidYMid meet">

<g transform="translate(0.000000,500.000000) scale(0.100000,-0.100000)"
fill="#000000" stroke="none">
<path d="M1858 4721 c-26 -10 -63 -29 -83 -41 -45 -28 -109 -108 -125 -155
l-12 -35 -158 0 c-88 0 -171 -5 -187 -11 -40 -15 -73 -48 -94 -94 -17 -36 -19
-68 -18 -295 0 -316 8 -347 104 -391 37 -17 81 -19 685 -19 l646 0 44 23 c33
16 51 34 68 67 22 44 23 50 20 327 l-3 281 -31 39 c-53 66 -78 73 -256 73
l-157 0 -24 53 c-35 76 -79 122 -155 159 -84 42 -189 49 -264 19z m196 -189
c42 -25 65 -60 76 -122 7 -38 18 -62 36 -77 24 -22 32 -23 215 -23 l189 0 0
-220 0 -220 -600 0 -600 0 2 218 3 217 196 5 c221 6 233 10 244 79 12 71 16
82 43 111 51 57 129 70 196 32z"/>
<path d="M585 4241 c-22 -5 -52 -13 -67 -19 -46 -19 -115 -90 -137 -142 l-21
-49 2 -1788 c3 -1758 3 -1789 23 -1828 11 -22 39 -59 62 -82 81 -78 -30 -73
1523 -73 1534 0 1437 -4 1516 64 22 18 50 55 64 82 l25 49 3 646 3 647 -27 31
c-48 57 -133 37 -154 -37 -6 -24 -10 -257 -10 -643 l0 -606 -26 -24 -26 -24
-1346 -3 c-948 -2 -1358 0 -1384 8 -74 21 -68 -128 -66 1814 l3 1745 23 23
c21 22 32 23 192 28 168 5 170 5 197 32 37 37 37 89 0 126 -27 27 -28 27 -180
29 -83 0 -170 -2 -192 -6z"/>
<path d="M3014 4241 c-28 -12 -64 -59 -64 -83 0 -31 27 -73 55 -86 16 -8 82
-12 179 -12 211 0 200 12 206 -205 l5 -167 33 -29 c43 -39 84 -39 124 1 l30
30 -4 178 c-3 159 -5 181 -25 218 -35 66 -70 101 -131 131 -54 26 -64 28 -222
30 -91 2 -175 -1 -186 -6z"/>
<path d="M3872 3740 c-12 -5 -55 -60 -97 -123 -74 -112 -86 -147 -69 -192 4
-9 60 -52 126 -96 l119 -80 -18 -28 c-10 -15 -291 -428 -626 -918 l-607 -890
-68 -45 c-37 -24 -79 -52 -94 -62 l-26 -17 19 88 c11 48 23 100 28 114 5 14
269 406 587 870 634 926 617 897 560 953 -28 29 -88 35 -118 13 -12 -10 -969
-1403 -1155 -1684 -30 -44 -43 -87 -94 -300 -32 -136 -59 -260 -59 -274 0 -47
69 -97 114 -83 11 4 115 73 230 155 l210 148 668 978 c394 576 668 986 668
999 0 50 -21 74 -127 146 -59 40 -112 76 -117 79 -4 4 -6 12 -2 17 4 7 52 -20
123 -69 137 -93 173 -101 217 -48 47 56 32 105 -52 165 -156 111 -284 194
-300 193 -9 0 -27 -4 -40 -9z"/>
<path d="M960 3015 l0 -315 313 2 312 3 3 313 2 312 -315 0 -315 0 0 -315z
m440 5 l0 -130 -130 0 -130 0 0 130 0 130 130 0 130 0 0 -130z"/>
<path d="M1913 3285 c-61 -26 -72 -97 -24 -146 l29 -29 502 0 502 0 29 29 c48
48 31 128 -32 150 -51 18 -964 14 -1006 -4z"/>
<path d="M1907 2919 c-11 -6 -25 -26 -33 -45 -12 -29 -12 -39 0 -68 8 -19 23
-39 34 -45 14 -7 147 -11 397 -11 l377 0 29 29 c38 39 40 88 3 125 l-27 26
-381 0 c-252 -1 -387 -4 -399 -11z"/>
<path d="M960 2085 l0 -315 315 0 315 0 0 315 0 315 -315 0 -315 0 0 -315z
m440 5 l0 -130 -130 0 -130 0 0 123 c0 68 3 127 7 130 3 4 62 7 130 7 l123 0
0 -130z"/>
<path d="M1907 2169 c-9 -5 -24 -24 -33 -40 -12 -25 -13 -37 -4 -65 21 -62 29
-64 287 -64 226 0 233 1 258 23 15 13 28 37 32 59 5 32 1 41 -25 68 l-30 30
-234 0 c-139 0 -240 -5 -251 -11z"/>
<path d="M960 1155 l0 -315 315 0 315 0 0 315 0 315 -315 0 -315 0 0 -315z
m440 0 l0 -125 -130 0 -130 0 0 125 0 125 130 0 130 0 0 -125z"/>
</g>
</svg>
