<?xml version="1.0" standalone="no"?>
<!DOCTYPE svg PUBLIC "-//W3C//DTD SVG 20010904//EN"
 "http://www.w3.org/TR/2001/REC-SVG-20010904/DTD/svg10.dtd">
<svg version="1.0" xmlns="http://www.w3.org/2000/svg"
 width="1024.000000pt" height="1024.000000pt" viewBox="0 0 1024.000000 1024.000000"
 preserveAspectRatio="xMidYMid meet">

<g transform="translate(0.000000,1024.000000) scale(0.100000,-0.100000)"
fill="#000000" stroke="none">
<path d="M3270 8320 c-153 -56 -275 -197 -309 -358 -6 -29 -11 -150 -11 -267
l0 -215 -109 0 c-96 0 -112 -3 -142 -23 -74 -50 -75 -158 -2 -214 33 -26 44
-28 145 -32 l108 -3 0 -324 0 -324 -95 0 c-105 0 -146 -12 -185 -55 -20 -21
-25 -37 -25 -80 0 -46 4 -58 29 -84 38 -40 80 -51 189 -51 l87 0 0 -330 0
-330 -95 0 c-139 0 -190 -25 -209 -103 -10 -42 10 -102 45 -131 29 -25 37 -26
144 -26 l113 0 5 -412 c4 -454 6 -472 70 -592 46 -89 155 -194 247 -240 143
-70 59 -67 1800 -64 l1565 3 85 31 c203 72 348 229 395 425 13 55 15 197 15
996 l0 931 49 36 c256 183 357 519 244 806 -49 124 -166 269 -263 327 l-30 17
0 99 c0 58 -7 125 -16 161 -48 187 -189 336 -392 415 l-67 26 -1665 2 c-1638
2 -1666 2 -1720 -17z m3368 -257 c122 -50 202 -137 228 -252 24 -99 23 -99
-43 -89 -76 12 -214 -5 -300 -37 -183 -69 -333 -225 -400 -417 -35 -98 -43
-262 -18 -373 59 -269 283 -485 550 -532 55 -9 116 -13 158 -10 l68 6 -3 -887
-3 -887 -28 -60 c-35 -76 -110 -146 -185 -177 l-57 -23 -1580 0 -1580 0 -46
23 c-61 30 -123 92 -157 155 l-27 52 -3 408 -3 407 116 0 117 0 34 34 c29 29
34 41 34 80 0 56 -19 96 -57 122 -22 14 -52 19 -135 22 l-108 4 0 329 0 329
95 0 c108 0 150 13 184 56 19 24 22 38 19 86 -7 100 -53 128 -210 128 l-88 0
0 324 0 324 108 3 c116 4 146 15 179 65 21 32 21 100 0 140 -25 49 -69 64
-186 64 l-101 0 0 206 c0 134 4 221 12 248 16 54 92 130 144 144 26 7 543 10
1629 9 l1590 -2 53 -22z m225 -598 c178 -38 314 -178 348 -359 22 -119 -22
-256 -113 -352 -93 -99 -192 -144 -318 -144 -171 0 -325 99 -396 254 -99 216
-14 461 196 564 104 51 174 60 283 37z"/>
<path d="M3968 7214 c-63 -34 -78 -135 -30 -194 26 -30 36 -34 98 -41 38 -5
440 -8 894 -8 782 -1 827 0 866 18 80 36 98 142 35 205 l-31 31 -903 2 c-784
2 -906 0 -929 -13z"/>
<path d="M3984 6416 c-107 -47 -98 -204 14 -236 25 -8 347 -10 1024 -8 l987 3
30 29 c68 65 56 172 -23 210 -31 14 -129 16 -1018 16 -800 -1 -989 -3 -1014
-14z"/>
<path d="M3984 5620 c-11 -4 -33 -22 -47 -40 -21 -25 -27 -42 -27 -81 0 -42 5
-55 34 -87 l34 -37 1150 -3 1149 -2 34 23 c66 44 83 121 42 184 -37 56 23 53
-1210 52 -626 0 -1147 -4 -1159 -9z"/>
<path d="M3918 3257 c-178 -51 -261 -245 -244 -567 16 -307 118 -443 331 -443
101 0 169 27 224 89 38 44 81 149 81 199 0 25 -1 25 -85 25 l-84 0 -11 -42
c-7 -22 -24 -54 -40 -70 -24 -24 -37 -28 -82 -28 -67 0 -91 16 -115 77 -15 41
-18 78 -18 253 0 175 3 212 18 252 24 62 57 88 113 88 59 0 98 -34 115 -100
l13 -50 89 0 89 0 -7 47 c-17 114 -77 208 -157 247 -66 32 -162 42 -230 23z"/>
<path d="M4655 3257 c-85 -29 -152 -83 -188 -154 -65 -125 -82 -443 -32 -608
34 -115 119 -211 208 -236 54 -15 150 -15 204 0 94 26 176 119 216 245 19 63
22 92 22 256 0 151 -3 196 -18 245 -54 175 -143 253 -296 261 -47 2 -91 -1
-116 -9z m167 -187 c14 -11 33 -38 42 -61 25 -62 37 -235 26 -362 -15 -170
-53 -231 -145 -229 -91 1 -122 53 -138 235 -18 209 13 390 72 422 39 21 113
19 143 -5z"/>
<path d="M1473 3252 l-91 -3 -46 -127 c-110 -304 -140 -382 -147 -382 -4 0
-14 21 -23 46 -9 26 -50 140 -92 255 l-77 209 -98 0 -99 0 0 -495 0 -495 89 0
88 0 -3 300 c-3 194 0 300 6 300 6 0 10 -5 10 -11 0 -6 30 -99 68 -205 l67
-194 59 2 59 3 64 175 c36 96 71 191 78 210 12 31 14 -3 14 -272 l1 -308 95 0
96 0 -6 403 c-6 430 -11 587 -16 590 -2 1 -45 1 -96 -1z"/>
<path d="M1955 3248 c-2 -7 -43 -164 -90 -348 -48 -184 -105 -400 -126 -480
-21 -79 -39 -148 -39 -152 0 -4 43 -8 95 -8 90 0 95 1 100 23 3 12 13 58 24
102 l18 80 128 0 128 0 24 -101 24 -101 92 -6 c50 -3 93 -4 95 -2 6 6 -18 104
-141 578 l-112 427 -108 0 c-77 0 -109 -4 -112 -12z m155 -426 c22 -95 40
-177 40 -182 0 -6 -38 -10 -91 -10 -69 0 -90 3 -86 13 2 6 21 86 41 177 40
179 46 200 52 185 2 -5 22 -88 44 -183z"/>
<path d="M2900 2760 l0 -500 85 0 85 0 1 73 c2 213 10 511 13 514 2 2 68 -132
147 -297 l144 -300 82 0 83 0 0 500 0 500 -90 0 -91 0 1 -287 c0 -159 0 -292
0 -298 0 -5 -68 126 -150 293 l-149 302 -80 0 -81 0 0 -500z"/>
<path d="M5212 2860 l3 -395 33 -68 c52 -106 135 -151 272 -151 172 1 275 103
300 300 6 45 10 215 8 392 l-3 314 -93 1 -92 2 0 -355 c0 -195 -5 -373 -10
-395 -13 -57 -49 -85 -110 -85 -41 0 -56 5 -82 29 l-33 29 -5 387 -5 386 -93
2 -93 2 3 -395z"/>
<path d="M5980 2761 l0 -501 95 0 95 0 0 190 0 190 39 0 40 0 39 -102 c21 -57
54 -142 72 -190 l33 -88 93 0 c52 0 94 1 94 3 0 1 -36 92 -79 202 l-78 199 43
33 c99 76 138 269 81 405 -20 48 -81 106 -136 131 -40 18 -71 21 -238 25
l-193 4 0 -501z m336 324 c44 -18 64 -64 64 -147 0 -107 -34 -143 -142 -154
l-68 -7 0 162 0 161 55 0 c31 0 71 -7 91 -15z"/>
<path d="M6906 3243 c-3 -10 -59 -227 -126 -483 -67 -256 -123 -473 -126 -482
-5 -16 4 -18 90 -18 l95 0 10 38 c6 20 18 68 27 105 l17 68 125 -3 126 -3 24
-102 23 -102 92 -3 c51 -2 94 -2 96 -1 6 4 -36 176 -145 596 -57 220 -104 401
-104 403 0 2 -49 4 -109 4 -96 0 -110 -2 -115 -17z m158 -433 l43 -180 -93 0
c-70 0 -92 3 -89 13 5 13 84 357 86 373 2 11 2 11 53 -206z"/>
<path d="M7490 2760 l0 -500 85 0 85 0 2 298 3 297 116 -235 c64 -129 128
-263 143 -297 31 -67 32 -68 134 -72 l62 -2 0 503 0 503 -85 0 -85 0 0 -292
c0 -161 -3 -293 -7 -293 -5 1 -72 132 -150 293 l-141 292 -81 3 -81 3 0 -501z"/>
<path d="M8240 3170 l0 -90 103 0 103 0 2 -407 3 -408 89 -3 90 -3 0 410 0
410 106 3 106 3 0 85 0 85 -301 3 -301 2 0 -90z"/>
<path d="M8940 2760 l0 -500 250 0 c138 0 253 0 258 0 4 0 7 37 7 83 l0 82
-162 3 -163 2 0 125 0 125 130 0 131 0 -3 83 -3 82 -127 3 -128 3 0 114 0 115
155 0 155 0 0 90 0 90 -250 0 -250 0 0 -500z"/>
<path d="M2550 2756 l0 -495 91 -3 c50 -2 93 -1 95 1 2 2 4 226 4 498 l0 493
-95 0 -95 0 0 -494z"/>
</g>
</svg>
